<svg id="visual" viewBox="0 0 900 600" width="900" height="600" xmlns="http://www.w3.org/2000/svg" xmlns:xlink="http://www.w3.org/1999/xlink" version="1.1"><rect x="0" y="0" width="900" height="600" fill="#001220"></rect><path d="M0 378L21.5 370.2C43 362.3 86 346.7 128.8 329.7C171.7 312.7 214.3 294.3 257.2 293.8C300 293.3 343 310.7 385.8 316C428.7 321.3 471.3 314.7 514.2 308C557 301.3 600 294.7 642.8 291C685.7 287.3 728.3 286.7 771.2 292.8C814 299 857 312 878.5 318.5L900 325L900 601L878.5 601C857 601 814 601 771.2 601C728.3 601 685.7 601 642.8 601C600 601 557 601 514.2 601C471.3 601 428.7 601 385.8 601C343 601 300 601 257.2 601C214.3 601 171.7 601 128.8 601C86 601 43 601 21.5 601L0 601Z" fill="#f7770f"></path><path d="M0 326L21.5 325.7C43 325.3 86 324.7 128.8 333.7C171.7 342.7 214.3 361.3 257.2 359.8C300 358.3 343 336.7 385.8 332.3C428.7 328 471.3 341 514.2 353.8C557 366.7 600 379.3 642.8 392.2C685.7 405 728.3 418 771.2 410.8C814 403.7 857 376.3 878.5 362.7L900 349L900 601L878.5 601C857 601 814 601 771.2 601C728.3 601 685.7 601 642.8 601C600 601 557 601 514.2 601C471.3 601 428.7 601 385.8 601C343 601 300 601 257.2 601C214.3 601 171.7 601 128.8 601C86 601 43 601 21.5 601L0 601Z" fill="#f55c31"></path><path d="M0 464L21.5 462.5C43 461 86 458 128.8 447.8C171.7 437.7 214.3 420.3 257.2 420.2C300 420 343 437 385.8 436.8C428.7 436.7 471.3 419.3 514.2 410.3C557 401.3 600 400.7 642.8 396.2C685.7 391.7 728.3 383.3 771.2 386.8C814 390.3 857 405.7 878.5 413.3L900 421L900 601L878.5 601C857 601 814 601 771.2 601C728.3 601 685.7 601 642.8 601C600 601 557 601 514.2 601C471.3 601 428.7 601 385.8 601C343 601 300 601 257.2 601C214.3 601 171.7 601 128.8 601C86 601 43 601 21.5 601L0 601Z" fill="#ec4347"></path><path d="M0 516L21.5 512.7C43 509.3 86 502.7 128.8 499.5C171.7 496.3 214.3 496.7 257.2 494.2C300 491.7 343 486.3 385.8 488.8C428.7 491.3 471.3 501.7 514.2 497.3C557 493 600 474 642.8 472.7C685.7 471.3 728.3 487.7 771.2 487.5C814 487.3 857 470.7 878.5 462.3L900 454L900 601L878.5 601C857 601 814 601 771.2 601C728.3 601 685.7 601 642.8 601C600 601 557 601 514.2 601C471.3 601 428.7 601 385.8 601C343 601 300 601 257.2 601C214.3 601 171.7 601 128.8 601C86 601 43 601 21.5 601L0 601Z" fill="#dc2f59"></path><path d="M0 502L21.5 509.2C43 516.3 86 530.7 128.8 535.7C171.7 540.7 214.3 536.3 257.2 529C300 521.7 343 511.3 385.8 509.5C428.7 507.7 471.3 514.3 514.2 517.2C557 520 600 519 642.8 518.5C685.7 518 728.3 518 771.2 517.8C814 517.7 857 517.3 878.5 517.2L900 517L900 601L878.5 601C857 601 814 601 771.2 601C728.3 601 685.7 601 642.8 601C600 601 557 601 514.2 601C471.3 601 428.7 601 385.8 601C343 601 300 601 257.2 601C214.3 601 171.7 601 128.8 601C86 601 43 601 21.5 601L0 601Z" fill="#c62368"></path></svg>